<svg version="1.1" xmlns="http://www.w3.org/2000/svg" xmlns:xlink="http://www.w3.org/1999/xlink" width="121.20263" height="75.69629" viewBox="0,0,121.20263,75.69629"><defs><linearGradient x1="169.7258" y1="135.099" x2="169.7258" y2="210.79533" gradientUnits="userSpaceOnUse" id="color-1"><stop offset="0" stop-color="#ffffff"></stop><stop offset="1" stop-color="#cccccc"></stop></linearGradient><radialGradient cx="237.7571" cy="170.70632" r="64.2175" gradientUnits="userSpaceOnUse" id="color-2"><stop offset="0" stop-color="#ffffff"></stop><stop offset="1" stop-color="#cccccc"></stop></radialGradient></defs><g transform="translate(-169.72582,-135.099)"><g data-paper-data="{&quot;isPaintingLayer&quot;:true}" fill-rule="nonzero" stroke="none" stroke-linecap="round" stroke-linejoin="miter" stroke-miterlimit="10" stroke-dasharray="" stroke-dashoffset="0" style="mix-blend-mode: normal"><path d="M232.06245,137.47299c10.64169,-2.64218 22.81388,-3.88113 33.33989,0.61818c3.69864,1.79657 -1.23565,10.88045 1.30236,14.71333c1.39922,2.11177 4.93536,-3.37907 6.72007,-1.29826c7.14096,7.19099 17.45763,15.10898 17.50348,26.45928c0.0479,11.66435 -8.25379,23.64148 -17.2524,28.62545c-12.6004,6.96472 -27.83567,3.40378 -41.71765,2.4085c-12.97233,-0.92981 -25.57478,-5.46498 -38.39298,-8.0367c-6.35751,-0.99162 -13.54431,1.02498 -19.17045,-2.65824c-3.42465,-2.24163 -5.38123,-8.23211 -4.42796,-12.9206c1.38986,-5.44883 10.01245,-5.20276 11.56481,-10.69493c1.58679,-5.62195 -5.46043,-12.29368 -3.54238,-18.29888c1.45238,-4.07646 7.12223,-3.75876 11.14802,-4.45115c6.89934,-1.1758 14.23616,2.12167 20.94168,0c8.0755,-2.59027 13.7902,-12.4321 21.98352,-14.466z" fill="url(#color-1)" stroke-width="1.28185"></path><path d="M229.84265,144.38685c4.13819,-1.46075 8.70432,-1.61086 11.81716,1.04267c2.62705,1.90185 0.91462,6.88053 2.10869,10.0095c0.91992,2.41589 2.23513,5.47923 4.30514,7.24654c1.92945,1.27205 4.38778,0.94776 6.8092,1.19904c3.85971,0.37018 8.29579,-2.41372 11.64146,-0.36497c5.51854,3.23022 13.41719,7.87939 12.9594,15.01433c-0.63959,9.95735 -10.73566,15.39591 -15.7709,23.45983c-1.07364,2.07178 2.95038,0.52342 1.22214,0.67979c-6.90757,0.6225 -12.76613,2.07387 -19.27744,1.77044c-8.01554,-0.58809 -15.70768,-1.73393 -24.07375,-4.43127c-6.0264,-2.01233 -10.60914,-8.48417 -16.82528,-10.00958c-6.28819,-1.54411 -13.50946,2.85587 -19.28538,0.36497c-2.67447,-1.16358 -5.1486,-6.39987 -3.60225,-9.2275c2.14816,-3.85369 9.38435,-0.56097 12.03683,-4.3792c1.68956,-2.53575 -1.85644,-6.05994 -1.58149,-9.2275c-0.36015,-3.7161 -1.57179,-9.39333 1.31794,-10.94795c5.3507,-2.88403 12.00522,1.78921 17.65992,0c6.81009,-2.18434 11.77681,-9.79681 18.5386,-12.19914z" fill="url(#color-2)" stroke-width="1.2017"></path></g></g></svg>