<svg version="1.1" xmlns="http://www.w3.org/2000/svg" xmlns:xlink="http://www.w3.org/1999/xlink" width="56.92219" height="57.96546" viewBox="0,0,56.92219,57.96546"><g transform="translate(-211.53891,-151.01727)"><g data-paper-data="{&quot;isPaintingLayer&quot;:true}" fill-rule="evenodd" stroke="none" stroke-width="1" stroke-linecap="butt" stroke-linejoin="miter" stroke-miterlimit="10" stroke-dasharray="" stroke-dashoffset="0" style="mix-blend-mode: normal"><path d="M267.38579,183.76526c-0.32109,0.48163 -0.85623,0.85623 -1.23083,1.33786c-0.85623,1.1238 -0.85623,2.14057 -0.3746,3.42492c1.07029,2.78275 0.3746,5.99361 -1.873,7.97364c-1.07029,0.96326 -2.51518,1.55192 -3.90655,1.71246c-1.92652,0.21406 -1.81949,0.21406 -3.42492,1.76597c-1.33786,1.39137 -1.60543,3.74601 -2.9968,5.08387c-0.85623,0.85623 -2.2476,2.30112 -5.61901,1.71246c-1.81949,-0.3746 -3.15735,-0.90974 -4.92332,-1.28434c-2.6222,-0.53514 -2.30112,-0.26757 -4.17412,1.28434c-2.51518,2.03355 -6.20767,3.26438 -8.82987,0.96326c-1.39137,-1.23083 -2.08706,-2.72923 -3.15735,-4.17412c-1.60543,-2.19409 -3.42492,-2.03355 -5.88658,-2.19409c-2.78275,-0.16054 -4.65575,-2.6222 -4.65575,-5.51198c-0.05351,-1.873 0.21406,-3.90655 -0.85623,-5.61901c-0.80272,-1.28434 -1.60543,-2.2476 -2.51518,-3.42492c-2.35463,-2.94329 -1.39137,-5.83307 0.05351,-8.88339c1.07029,-2.2476 -1.55192,-3.37141 -0.96326,-5.56549c0.3746,-1.39137 4.44169,-3.31789 4.70926,-6.95687c0.10703,-1.39137 -0.32109,-5.83307 2.72923,-5.51198c0.90974,0.10703 2.14057,0.16054 2.94329,-0.3746c1.01677,-0.69569 1.01677,-1.01677 1.23083,-2.14057c0.64217,-3.42492 2.78275,-5.19089 6.3147,-4.12061c1.33786,0.42811 2.35463,1.07029 3.74601,0.90974c1.44489,-0.16054 2.14057,-1.23083 3.31789,-1.92652c1.28434,-0.80272 3.15735,-1.4984 4.70926,-1.1238c1.4984,0.3746 1.71246,1.55192 2.56869,2.67572c1.76597,2.30112 3.90655,0.32109 6.04712,0.05351c2.6222,-0.32109 4.81629,1.17732 5.35144,3.42492c0.21406,0.85623 0.48163,1.44489 1.07029,2.08706c0.80272,0.85623 1.17732,0.90974 2.2476,0.96326c1.28434,0.05351 3.05032,0.64217 3.96006,1.55192c2.56869,2.67572 0.21406,6.20767 0.53514,9.41853c0.21406,2.40815 2.19409,3.05032 3.53195,4.70926c0.85623,1.01677 1.33786,2.35463 1.39137,3.69249c0.05351,1.44489 -0.32109,2.88978 -1.07029,4.06709z" fill="#de7b51"></path><path d="M264.81711,185.47772c0.42811,1.873 0.58866,3.90655 -0.58866,5.56549c-0.69569,0.96326 -1.65895,0.90974 -2.35463,1.65895c-1.76597,1.92652 -0.48163,4.70926 -2.08706,7.17093c-0.90974,1.39137 -3.79952,1.60543 -5.51198,1.71246c-0.16054,0 -1.01677,0.16054 -1.1238,0.85623c-0.7492,2.67572 -3.85303,3.10383 -6.47524,3.31789c-1.98003,0.16054 -3.53195,1.33786 -5.56549,1.01677c-0.90974,-0.16054 -1.81949,-0.64217 -2.72923,-0.7492c-1.39137,-0.16054 -1.873,0.48163 -3.05032,0.64217c-1.76597,0.16054 -2.78275,-1.17732 -4.28115,-1.76597c-1.55192,-0.58866 -3.26438,-0.3746 -4.76278,-1.17732c-1.60543,-0.85623 -2.46166,-2.51518 -3.96006,-3.47843c-1.17732,-0.7492 -1.873,-1.65895 -2.46166,-2.94329c-0.53514,-1.07029 -0.64217,-1.873 -1.71246,-2.56869c-0.53514,-0.3746 -0.96326,-0.48163 -1.44489,-0.96326c-1.17732,-1.17732 -2.6222,-1.71246 -2.83626,-4.81629c-0.05351,-0.90974 -0.3746,-1.55192 -0.3746,-2.46166c0,-0.96326 -0.10703,-1.60543 -0.3746,-2.6222c-0.53514,-1.76597 0.26757,-3.47843 0.64217,-5.29792c0.42811,-2.30112 -0.10703,-4.12061 0,-6.47524c0.05351,-1.65895 0.58866,-2.88978 1.76597,-4.06709c0.7492,-0.69569 1.71246,-1.1238 2.30112,-2.03355c0.64217,-1.01677 0.80272,-2.2476 1.28434,-3.31789c0.58866,-1.33786 1.39137,-2.40815 2.78275,-3.05032c0.10703,-0.05351 4.44169,-1.55192 7.75958,-4.81629c2.14057,-2.14057 4.81629,-0.26757 7.59904,-0.16054c3.10383,0.10703 5.67252,-1.28434 8.72284,-0.10703c1.39137,0.53514 2.67572,1.44489 4.06709,1.873c1.33786,0.42811 2.14057,-0.05351 3.53195,0.26757c2.6222,0.64217 3.79952,5.35144 5.72604,7.65255c1.92652,2.2476 4.49521,2.51518 5.19089,5.61901c0.3746,1.4984 -0.16054,2.94329 0.48163,4.33466c0.53514,1.1238 1.44489,1.98003 1.81949,3.15735c0.80272,2.6222 -2.46166,6.20767 -1.98003,8.02716z" fill="#ebb45d"></path><path d="M239.55833,155.83076c2.72923,0 5.83307,1.76597 8.29473,2.67572c2.6222,0.90974 4.86981,0.69569 7.01038,2.40815c1.98003,1.60543 1.76597,3.69249 3.15735,5.88658c0.96326,1.4984 3.58546,2.67572 4.49521,4.60224c1.28434,2.67572 0.7492,6.15415 0.7492,8.82987c0,1.81949 0.7492,5.29792 0.3746,7.01038c-0.90974,3.96006 -4.97684,5.19089 -7.54553,8.13418c-2.08706,2.35463 -3.42492,4.86981 -6.26118,6.20767c-3.10383,1.4984 -5.72604,3.63898 -9.41853,3.63898c-1.98003,0 -4.76278,-2.67572 -6.58227,-3.15735c-2.46166,-0.58866 -7.27795,0.58866 -8.45527,-1.60543c-3.96006,-7.49201 -5.24441,-6.47524 -7.11741,-9.25799c-2.51518,-3.74601 -1.65895,-6.36821 -1.65895,-11.23802c0,-2.51518 -1.39137,-4.92332 -0.64217,-7.17093c0.90974,-2.83626 3.42492,-5.19089 5.24441,-7.4385c2.56869,-3.21086 7.33147,-4.54872 11.1845,-6.10064c2.56869,-1.01677 4.12061,-3.42492 7.17093,-3.42492z" fill="#f2c855"></path><path d="M221.21101,180c0,-10.37688 8.41212,-18.78899 18.78899,-18.78899c10.37688,0 18.78899,8.41212 18.78899,18.78899c0,10.37688 -8.41212,18.78899 -18.78899,18.78899c-10.37688,0 -18.78899,-8.41212 -18.78899,-18.78899z" fill="#fae36e"></path></g></g></svg>